<?xml version="1.0" encoding="utf-8"?>
<svg fill="none" xmlns="http://www.w3.org/2000/svg" viewBox="0 0 1024 512"><path fill="#fff" d="M0 0h1024v512H0z"/><path d="M414.948 192.684c-27.576 29.096-52.388 63.628-49.756 99.396 2.699 35.768 32.842 72.71 68.052 81.667 35.211 8.896 75.424-10.193 115.966-28.602 40.541-18.409 81.346-36.077 93.654-65.79 12.241-29.714-3.949-71.536-31.986-100.694s-67.789-45.714-102.868-42.193c-35.079 3.522-65.486 27.12-93.062 56.216z" fill="url(#paint0_linear)"/><path d="M425.41 307.671h0zm.429-.858l1.952-3.906c11.368-22.734 6.912-50.192-11.061-68.166-11.887-11.886-14.833-30.044-7.316-45.079l6.063-12.125a1.31 1.31 0 011.172-.724h176.829l-1.952 3.905c-11.368 22.734-6.912 50.192 11.061 68.166 11.887 11.886 14.833 30.044 7.316 45.079l-6.063 12.125a1.31 1.31 0 01-1.172.725H425.839zm168.068-130.859v.002-.002z" stroke="#000" stroke-width="20"/><path d="M453.658 212.813h45.325c14.945 0 22.155 18.31 11.223 28.5v0c-10.933 10.189-3.722 28.5 11.222 28.5h43.23" stroke="#000" stroke-width="15"/><circle cx="564.158" cy="269.813" r="7.5" fill="#000"/><circle cx="454.158" cy="212.813" r="7.5" fill="#000"/><path d="M380.194 372.813c-1.749 0-3.093-.47-4.032-1.408-.938-.939-1.408-2.283-1.408-4.032v-34.24c0-1.75.47-3.094 1.408-4.032.939-.939 2.283-1.408 4.032-1.408h12.928c4.992 0 9.28.917 12.864 2.752 3.627 1.792 6.4 4.373 8.32 7.744 1.92 3.37 2.88 7.381 2.88 12.032 0 4.693-.96 8.746-2.88 12.16-1.877 3.37-4.629 5.952-8.256 7.744-3.584 1.792-7.893 2.688-12.928 2.688h-12.928zm12.096-9.472c4.395 0 7.68-1.067 9.856-3.2 2.219-2.176 3.328-5.483 3.328-9.92 0-4.438-1.109-7.723-3.328-9.856-2.176-2.134-5.461-3.2-9.856-3.2h-5.76v26.176h5.76zm73.789 2.24c.384.81.576 1.6.576 2.368 0 1.408-.576 2.602-1.728 3.584-1.109.981-2.389 1.472-3.84 1.472a4.934 4.934 0 01-2.688-.768c-.81-.512-1.45-1.28-1.92-2.304l-2.88-6.464h-20.736l-2.944 6.464c-.469 1.024-1.13 1.792-1.984 2.304a4.93 4.93 0 01-2.688.768c-1.45 0-2.773-.491-3.968-1.472-1.152-.982-1.728-2.176-1.728-3.584 0-.768.192-1.558.576-2.368l16.896-34.688c.555-1.152 1.366-2.027 2.432-2.624a7.175 7.175 0 013.648-.96c1.28 0 2.475.32 3.584.96a5.714 5.714 0 012.496 2.624l16.896 34.688zm-16.448-10.944l-6.4-14.272-6.4 14.272h12.8zm60.016 9.344c1.109 1.066 1.664 2.304 1.664 3.712 0 1.408-.533 2.645-1.6 3.712-1.067 1.066-2.325 1.6-3.776 1.6-1.579 0-3.029-.683-4.352-2.048l-18.24-18.688v15.104c0 1.792-.533 3.221-1.6 4.288-1.067 1.024-2.517 1.536-4.352 1.536-1.792 0-3.221-.512-4.288-1.536-1.024-1.067-1.536-2.496-1.536-4.288v-34.24c0-1.75.512-3.136 1.536-4.16 1.067-1.067 2.496-1.6 4.288-1.6 1.835 0 3.285.533 4.352 1.6 1.067 1.024 1.6 2.41 1.6 4.16v14.08l17.984-18.112c1.109-1.152 2.368-1.728 3.776-1.728s2.645.533 3.712 1.6c1.067 1.024 1.6 2.24 1.6 3.648s-.619 2.709-1.856 3.904l-13.12 12.864 14.208 14.592zm12.431 9.216c-1.792 0-3.221-.512-4.288-1.536-1.024-1.067-1.536-2.496-1.536-4.288v-34.24c0-1.75.47-3.094 1.408-4.032.939-.939 2.283-1.408 4.032-1.408h16.384c4.992 0 8.875 1.28 11.648 3.84 2.774 2.517 4.16 6.037 4.16 10.56 0 4.48-1.408 8-4.224 10.56-2.773 2.56-6.634 3.84-11.584 3.84H528.03v10.88c0 1.792-.533 3.221-1.6 4.288-1.066 1.024-2.517 1.536-4.352 1.536zm14.4-25.536c2.176 0 3.776-.448 4.8-1.344 1.067-.896 1.6-2.283 1.6-4.16 0-3.712-2.133-5.568-6.4-5.568h-8.448v11.072h8.448zm61.476 17.92c.384.81.576 1.6.576 2.368 0 1.408-.576 2.602-1.728 3.584-1.109.981-2.389 1.472-3.84 1.472a4.934 4.934 0 01-2.688-.768c-.81-.512-1.45-1.28-1.92-2.304l-2.88-6.464h-20.736l-2.944 6.464c-.469 1.024-1.13 1.792-1.984 2.304a4.93 4.93 0 01-2.688.768c-1.45 0-2.773-.491-3.968-1.472-1.152-.982-1.728-2.176-1.728-3.584 0-.768.192-1.558.576-2.368l16.896-34.688c.555-1.152 1.366-2.027 2.432-2.624a7.175 7.175 0 013.648-.96c1.28 0 2.475.32 3.584.96a5.714 5.714 0 012.496 2.624l16.896 34.688zm-16.448-10.944l-6.4-14.272-6.4 14.272h12.8zm56.624-27.264c1.621 0 2.944.533 3.968 1.6 1.067 1.066 1.6 2.453 1.6 4.16v34.24c0 1.749-.512 3.157-1.536 4.224-1.024 1.066-2.347 1.6-3.968 1.6-1.92 0-3.371-.64-4.352-1.92l-19.456-24.256v20.352c0 1.749-.491 3.157-1.472 4.224-.981 1.066-2.304 1.6-3.968 1.6-1.621 0-2.944-.534-3.968-1.6-1.024-1.067-1.536-2.475-1.536-4.224v-34.24c0-1.707.512-3.094 1.536-4.16 1.024-1.067 2.347-1.6 3.968-1.6 1.835 0 3.264.64 4.288 1.92l19.456 24.192v-20.352c0-1.75.491-3.136 1.472-4.16 1.024-1.067 2.347-1.6 3.968-1.6z" fill="#000"/><defs><linearGradient id="paint0_linear" x1="506" y1="136" x2="506" y2="376" gradientUnits="userSpaceOnUse"><stop stop-color="#FFBA05"/><stop offset="1" stop-color="#FFBA05" stop-opacity=".69"/></linearGradient></defs></svg>
